<?xml version="1.0" standalone="no"?>
<!DOCTYPE svg PUBLIC "-//W3C//DTD SVG 20010904//EN"
 "http://www.w3.org/TR/2001/REC-SVG-20010904/DTD/svg10.dtd">
<svg version="1.0" xmlns="http://www.w3.org/2000/svg"
 width="500.000000pt" height="500.000000pt" viewBox="0 0 500.000000 500.000000"
 preserveAspectRatio="xMidYMid meet">
<metadata>
Created by potrace 1.14, written by Peter Selinger 2001-2017
</metadata>
<g transform="translate(0.000000,500.000000) scale(0.100000,-0.100000)"
fill="#000000" stroke="none">
<path d="M2300 4829 c-536 -44 -1041 -276 -1434 -658 -653 -636 -876 -1608
-564 -2466 259 -714 867 -1269 1598 -1459 233 -60 324 -71 605 -71 217 1 267
4 380 24 504 90 943 322 1290 682 333 345 541 755 626 1234 31 174 34 567 6
740 -83 507 -306 944 -662 1300 -487 487 -1157 731 -1845 674z m508 -154 c978
-141 1737 -913 1867 -1899 17 -136 20 -375 4 -514 -82 -746 -547 -1404 -1225
-1734 -307 -149 -613 -218 -963 -218 -429 0 -844 124 -1197 359 -544 361 -888
912 -975 1561 -19 139 -16 440 5 580 60 402 219 765 469 1075 36 44 116 130
178 191 366 356 816 564 1332 614 119 11 374 4 505 -15z"/>
<path d="M2416 4216 c-76 -41 -142 -80 -147 -87 -14 -23 -10 -55 9 -72 20 -18
62 -22 78 -8 5 5 64 37 132 71 67 34 122 65 122 69 0 8 -50 101 -53 101 -1 0
-64 -34 -141 -74z"/>
<path d="M2140 3525 c0 -33 4 -45 15 -45 10 0 15 11 15 35 0 32 2 35 30 35
l30 0 0 -95 c0 -88 -1 -95 -20 -95 -11 0 -20 -4 -20 -10 0 -5 25 -10 55 -10
54 0 74 13 35 23 -18 5 -20 14 -20 96 l0 91 29 0 c26 0 30 -4 33 -32 5 -52 28
-47 28 6 l0 46 -105 0 -105 0 0 -45z"/>
<path d="M2365 3560 c3 -5 13 -10 21 -10 11 0 14 -19 14 -95 0 -88 -1 -95 -20
-95 -11 0 -20 -4 -20 -10 0 -5 25 -10 55 -10 30 0 55 5 55 10 0 6 -7 10 -15
10 -11 0 -15 12 -15 45 l0 45 50 0 50 0 0 -45 c0 -38 -3 -45 -20 -45 -11 0
-20 -4 -20 -10 0 -5 25 -10 55 -10 30 0 55 5 55 10 0 6 -9 10 -20 10 -19 0
-20 7 -20 95 0 88 1 95 20 95 11 0 20 5 20 10 0 6 -25 10 -55 10 -30 0 -55 -4
-55 -10 0 -5 9 -10 20 -10 17 0 20 -7 20 -40 l0 -40 -50 0 -50 0 0 40 c0 29 4
40 15 40 8 0 15 5 15 10 0 6 -25 10 -56 10 -34 0 -53 -4 -49 -10z"/>
<path d="M2625 3560 c3 -5 13 -10 21 -10 11 0 14 -19 14 -95 0 -76 -3 -95 -14
-95 -8 0 -18 -4 -21 -10 -4 -6 33 -10 105 -10 l111 0 -3 42 c-4 53 -28 65 -28
14 l0 -36 -55 0 -55 0 0 45 c0 43 1 45 30 45 23 0 30 -4 30 -20 0 -11 5 -20
10 -20 6 0 10 20 10 45 0 25 -4 45 -10 45 -5 0 -10 -7 -10 -15 0 -10 -10 -15
-30 -15 -28 0 -30 2 -30 40 l0 40 55 0 55 0 0 -36 c0 -51 24 -39 28 14 l3 42
-111 0 c-72 0 -109 -4 -105 -10z"/>
<path d="M4055 3515 c43 -36 160 -76 239 -82 79 -7 81 2 13 41 -60 35 -170 66
-231 66 l-51 -1 30 -24z"/>
<path d="M1897 3255 c-159 -155 -185 -164 -459 -165 -232 -2 -285 -11 -332
-59 -67 -68 -65 -170 5 -374 57 -164 56 -162 11 -173 -25 -6 -36 -14 -34 -25
2 -12 -4 -15 -23 -11 -14 2 -25 2 -25 0 0 -15 71 -203 80 -212 8 -8 15 -5 26
8 8 11 14 14 14 8 0 -17 35 -15 50 3 19 23 28 18 35 -17 4 -18 15 -60 25 -93
10 -33 24 -89 31 -123 9 -47 15 -60 21 -48 6 11 -3 63 -27 158 -19 77 -33 143
-30 146 3 3 13 7 23 9 47 7 92 34 93 56 0 12 20 -36 45 -108 41 -121 44 -136
44 -236 l0 -106 -24 4 c-37 7 -70 -30 -62 -71 7 -37 42 -69 68 -63 10 3 18 1
18 -4 0 -5 -5 -9 -10 -9 -6 0 -22 -12 -35 -26 l-25 -26 -8 23 c-5 13 -15 54
-22 91 -6 37 -18 75 -26 85 -19 25 -18 7 6 -97 12 -54 15 -89 9 -94 -14 -15
-11 -36 6 -36 8 0 15 -3 15 -6 0 -3 16 -79 35 -169 19 -89 32 -170 29 -179
-12 -32 -38 -13 -47 34 -23 133 -122 500 -133 500 -23 0 -23 -15 2 -100 13
-46 23 -89 22 -94 0 -6 4 -23 10 -38 6 -15 27 -100 46 -190 31 -142 33 -164
21 -178 -23 -26 -104 -62 -126 -57 -10 3 -17 2 -14 -3 6 -10 -62 -19 -102 -13
-28 5 -36 13 -62 67 -16 33 -37 90 -46 126 -10 36 -27 80 -38 99 -20 33 -83
70 -120 71 -15 0 -11 9 21 45 55 63 108 174 138 291 21 81 25 118 22 200 -3
94 -2 100 15 90 19 -12 22 -22 7 -31 -5 -3 -10 -11 -10 -18 0 -6 6 -3 13 7 13
17 16 16 46 -20 25 -31 33 -36 41 -25 9 15 -13 54 -45 81 -12 10 -13 16 -3 29
11 14 11 14 -2 4 -13 -10 -27 -3 -80 38 -89 69 -134 65 -211 -18 -47 -51 -62
-76 -103 -175 -96 -234 -93 -481 7 -523 26 -11 43 -12 72 -4 55 15 112 2 150
-35 46 -43 112 -249 94 -289 -14 -32 5 -68 49 -91 16 -8 45 -41 64 -73 20 -32
64 -84 97 -116 99 -95 187 -122 300 -92 124 32 207 89 247 171 32 66 41 153
23 225 -7 30 -12 73 -10 97 2 36 -2 46 -26 70 -31 29 -88 175 -76 196 3 6 2 7
-2 3 -5 -4 -15 12 -22 35 -7 23 -9 46 -5 49 4 4 113 9 242 12 250 5 310 14
426 62 115 48 183 148 192 281 12 186 -92 305 -304 352 l-76 16 59 16 c165 46
242 132 251 280 2 41 -1 93 -7 116 -37 138 -185 209 -458 221 l-122 6 37 27
c74 54 110 109 132 202 12 53 12 60 -5 78 -10 11 -23 20 -29 20 -6 0 -55 -43
-109 -95z m73 -10 c35 -18 37 -32 11 -84 -30 -57 -101 -114 -167 -135 -18 -5
-22 -2 -26 21 -3 15 -8 35 -12 43 -4 10 3 21 21 32 32 18 133 118 133 130 0
11 7 10 40 -7z m-215 -191 c9 -14 14 -28 12 -31 -3 -3 -40 -2 -81 2 -52 5 -74
11 -69 19 4 6 -1 5 -10 -2 -11 -10 -53 -14 -139 -15 -119 -2 -123 -3 -126 -24
-3 -22 0 -23 62 -23 59 0 66 -2 66 -20 0 -18 -7 -20 -70 -20 -111 0 -170 -36
-170 -103 0 -16 14 -69 30 -119 17 -49 27 -94 24 -100 -4 -6 -2 -8 3 -5 6 4
14 -5 18 -21 4 -15 6 -27 4 -27 -1 0 4 -11 11 -25 12 -22 11 -24 -2 -13 -12
10 -24 10 -62 -3 -57 -20 -69 -16 -83 27 -6 19 -28 81 -48 139 -26 73 -38 129
-42 185 -5 80 -5 80 28 117 19 20 49 41 68 47 19 6 112 11 210 12 141 0 262
10 342 28 4 0 14 -11 24 -25z m253 -94 c58 -35 67 -72 67 -270 0 -168 -1 -177
-25 -220 -31 -55 -76 -80 -147 -80 l-53 0 0 295 0 295 63 0 c45 0 71 -6 95
-20z m-539 -387 c0 -192 -3 -341 -6 -333 -82 231 -121 355 -116 364 3 6 2 8
-2 3 -12 -11 -75 179 -75 228 0 66 26 82 138 84 l62 1 -1 -347z m524 -234 c59
-16 105 -63 123 -126 13 -43 15 -88 12 -207 -4 -163 -15 -206 -65 -258 -29
-30 -107 -51 -170 -46 l-38 3 -3 323 -2 322 52 0 c29 0 70 -5 91 -11z m-1029
-112 c37 -37 60 -168 34 -196 -10 -11 -10 -12 -1 -7 13 7 12 -4 -10 -114 -6
-30 -10 -58 -9 -62 3 -11 -5 -10 -31 3 -22 10 -22 10 0 -8 l23 -18 -34 -77
c-57 -131 -132 -218 -187 -218 -64 0 -95 76 -85 205 16 193 84 371 177 464 55
55 88 63 123 28z m517 -617 c14 0 36 11 49 25 19 20 32 25 59 23 l34 -3 48
-145 c27 -80 49 -153 49 -162 0 -10 -20 -29 -45 -44 -45 -26 -70 -29 -40 -4
22 18 19 73 -7 105 l-22 28 24 -6 c24 -6 24 -5 5 9 -12 9 -21 11 -23 4 -2 -5
-21 -10 -41 -10 -66 0 -104 -68 -72 -128 6 -12 8 -22 3 -22 -14 0 -38 91 -97
370 -5 24 -4 23 22 -8 18 -21 37 -32 54 -32z m308 -496 c2 -53 -28 -133 -66
-175 -19 -21 -63 -52 -97 -68 -156 -74 -275 -54 -388 66 -37 40 -98 124 -98
135 0 2 31 3 68 3 58 0 79 5 131 32 60 31 63 32 68 13 7 -25 47 -36 82 -24 23
9 26 15 25 52 -1 30 2 40 10 32 25 -25 165 0 216 40 l25 19 12 -47 c6 -26 12
-61 12 -78z"/>
<path d="M888 2173 c-63 -66 -137 -269 -157 -433 -22 -172 48 -192 127 -35 29
59 83 215 88 255 2 19 8 62 13 94 9 65 0 124 -21 137 -19 13 -22 12 -50 -18z
m38 -90 c-3 -43 -13 -103 -22 -133 -8 -30 -16 -64 -18 -75 -5 -33 -49 -129
-66 -143 -10 -9 -11 -11 -1 -6 9 4 5 -9 -10 -36 -39 -71 -53 -65 -46 17 7 83
37 213 49 213 5 0 7 4 3 9 -7 12 38 133 71 188 38 65 48 56 40 -34z"/>
<path d="M1480 1587 c-31 -16 -39 -76 -15 -113 16 -25 65 -33 95 -14 9 6 20 5
30 -3 12 -9 13 -8 4 2 -7 7 -9 31 -7 55 5 38 2 45 -22 64 -32 25 -50 27 -85 9z"/>
<path d="M2990 3033 c-193 -30 -310 -124 -327 -264 -7 -60 15 -124 57 -164 26
-25 40 -30 95 -33 78 -5 114 8 155 55 25 28 30 42 30 88 0 71 -7 85 -40 85
-71 0 -42 160 34 192 46 19 101 16 133 -8 50 -38 66 -100 67 -264 1 -137 -1
-148 -25 -201 -23 -49 -34 -60 -80 -82 -30 -15 -74 -29 -99 -33 -65 -8 -69
-11 -63 -33 5 -18 11 -20 52 -15 25 4 63 10 83 14 33 7 43 4 77 -21 87 -62
117 -165 108 -367 -6 -149 -23 -208 -73 -252 -42 -37 -68 -44 -144 -38 -74 5
-110 30 -129 87 -20 62 -6 105 36 109 28 3 33 8 39 38 20 105 -32 179 -136
197 -81 14 -169 -38 -190 -113 -15 -55 -11 -131 9 -175 22 -47 80 -105 135
-134 115 -60 372 -68 533 -17 185 60 286 172 300 334 17 200 -129 349 -367
377 -88 10 -89 16 -13 35 205 53 313 158 313 306 0 202 -150 306 -440 302 -58
0 -116 -2 -130 -5z"/>
</g>
</svg>
